<?xml version="1.0" standalone="no"?>
<!DOCTYPE svg PUBLIC "-//W3C//DTD SVG 20010904//EN"
 "http://www.w3.org/TR/2001/REC-SVG-20010904/DTD/svg10.dtd">
<svg version="1.0" xmlns="http://www.w3.org/2000/svg"
 width="24.000000pt" height="24.000000pt" viewBox="0 0 24.000000 24.000000"
 preserveAspectRatio="xMidYMid meet">

<g transform="translate(0.000000,24.000000) scale(0.100000,-0.100000)"
fill="#000000" stroke="none">
<path d="M60 191 c0 -10 -9 -21 -20 -24 -16 -4 -20 -14 -20 -51 0 -39 3 -46
20 -46 13 0 20 -7 20 -20 0 -18 7 -20 60 -20 53 0 60 2 60 20 0 13 7 20 20 20
17 0 20 7 20 46 0 37 -4 47 -20 51 -11 3 -20 14 -20 24 0 17 -8 19 -60 19 -52
0 -60 -2 -60 -19z m100 -11 c0 -5 -18 -10 -40 -10 -22 0 -40 5 -40 10 0 6 18
10 40 10 22 0 40 -4 40 -10z m40 -60 c0 -16 -4 -30 -10 -30 -5 0 -10 5 -10 10
0 6 -27 10 -60 10 -33 0 -60 -4 -60 -10 0 -5 -4 -10 -10 -10 -5 0 -10 14 -10
30 l0 30 80 0 80 0 0 -30z m-40 -50 c0 -17 -7 -20 -40 -20 -33 0 -40 3 -40 20
0 17 7 20 40 20 33 0 40 -3 40 -20z"/>
<path d="M170 130 c0 -5 5 -10 10 -10 6 0 10 5 10 10 0 6 -4 10 -10 10 -5 0
-10 -4 -10 -10z"/>
</g>
</svg>
