<?xml version="1.0" encoding="UTF-8"?>
<svg width="48px" height="48px" viewBox="0 0 48 48" version="1.1" xmlns="http://www.w3.org/2000/svg" xmlns:xlink="http://www.w3.org/1999/xlink">
    <!-- Generator: Sketch 51.3 (57544) - http://www.bohemiancoding.com/sketch -->
    <title>Icon-mobikul</title>
    <desc>Created with Sketch.</desc>
    <defs></defs>
    <g id="Icon-mobikul" stroke="none" stroke-width="1" fill="none" fill-rule="evenodd">
        <rect id="Rectangle-2" stroke="#8E8E8E" stroke-width="2" stroke-linecap="round" stroke-linejoin="round" x="13" y="6" width="23" height="37"></rect>
        <path d="M13,36 L35.0115508,36" id="Path-40" stroke="#8E8E8E" stroke-width="2" stroke-linecap="round" stroke-linejoin="round"></path>
        <path d="M14,11 L36,11" id="Path-40" stroke="#8E8E8E" stroke-width="2" stroke-linecap="round" stroke-linejoin="round"></path>
        <g id="Group" transform="translate(17.000000, 17.000000)" stroke="#8E8E8E" stroke-linecap="round" stroke-linejoin="round" stroke-width="2">
            <path d="M7.53132062,2.66124895 C6.79221378,1.03676013 5.1999785,-0.00137449983 3.44964162,1.36592318e-06 C1.54522119,0.000828881121 0.00141515328,1.58096598 0,3.53082491 L0,10.5932223 C0.00121095527,11.3697962 0.615883447,11.9989668 1.37436067,11.9999996 L3.86074071,11.9999996 C4.34249542,12.0003567 4.79086255,11.7480621 5.04881205,11.3314761 C5.3067616,10.91489 5.33834833,10.3920637 5.13250981,9.94610471 L4.00546811,7.46717547 C3.9203821,7.28262328 3.93792237,7.06561411 4.05148171,6.8978932 C4.16504106,6.73017233 4.35736706,6.63722051 4.55601241,6.65405179 C4.75465776,6.67088311 4.9294435,6.79494047 5.0145295,6.97949266 L6.81940838,10.9274726 C7.11989005,11.5791074 7.76035524,11.994993 8.46417113,11.9954979 L9.62528789,11.9954979 C10.0948025,11.9963902 10.5321667,11.7514308 10.7846703,11.3461496 C11.0371739,10.9408685 11.069757,10.4315389 10.8710427,9.99599841 L7.53132062,2.66124895 Z" id="logo-path"></path>
            <path d="M11.363294,8.3580526e-07 L11.1002837,8.3580526e-07 C10.0416794,-0.000765111453 9.05595983,0.524959426 8.4864756,1.39405153 C7.91699133,2.26314364 7.84259228,3.35527025 8.28919344,4.29001655 L11.4745823,10.9566237 C11.8395936,11.7236451 12.7034598,12.1399621 13.550997,11.9572957 C14.3985343,11.7746292 15.0013728,11.042199 14.9999977,10.1968045 L14.9999977,3.54182341 C14.999785,1.5858146 13.3717019,0.000207918415 11.363294,8.3580526e-07 Z" id="logo-path"></path>
        </g>
        <circle id="Oval-18" fill="#8E8E8E" cx="24.5" cy="39.5" r="1.5"></circle>
    </g>
</svg>